<mxfile host="drawio-plugin" agent="Mozilla/5.0 (Windows NT 10.0; Win64; x64) AppleWebKit/537.36 (KHTML, like Gecko) Chrome/122.0.0.0 Safari/537.36" modified="2025-09-25T22:21:12.833Z" etag="qDL37eZ2LPLs7ex_ksZJ" version="22.1.22" type="embed" pages="2">
  <diagram name="Architecture with Agentic Layer" id="fHTXW7rIw0GSu0zwNXze">
    <mxGraphModel dx="1030" dy="2912" grid="1" gridSize="10" guides="1" tooltips="1" connect="1" arrows="1" fold="1" page="1" pageScale="1" pageWidth="850" pageHeight="1100" math="0" shadow="0">
      <root>
        <mxCell id="0" />
        <mxCell id="1" parent="0" />
        <mxCell id="31" value="&lt;font style=&quot;font-size: 14px;&quot;&gt;&lt;b&gt;AGENTIC LAYER&lt;/b&gt;&lt;/font&gt;" style="whiteSpace=wrap;html=1;fillColor=#76608a;fontColor=#ffffff;strokeColor=#432D57;fillStyle=solid;" parent="1" vertex="1">
          <mxGeometry x="270" y="-1320" width="120" height="360" as="geometry" />
        </mxCell>
        <mxCell id="MsOpfCJwf6dWTmrJJ_BN-5" value="&lt;font style=&quot;font-size: 14px;&quot;&gt;&lt;b style=&quot;&quot;&gt;BACKEND&lt;br&gt;&lt;br&gt;&lt;br&gt;&lt;br&gt;&lt;br&gt;CALORIE COACH&lt;br&gt;&lt;/b&gt;&lt;/font&gt;" style="rounded=1;whiteSpace=wrap;html=1;absoluteArcSize=1;arcSize=14;strokeWidth=2;fillColor=#60a917;fontColor=#ffffff;strokeColor=#2D7600;" parent="1" vertex="1">
          <mxGeometry x="480" y="-1030" width="170" height="350" as="geometry" />
        </mxCell>
        <mxCell id="6" value="&lt;b style=&quot;font-size: 14px;&quot;&gt;&lt;font color=&quot;#ffffff&quot;&gt;FRONT END&amp;nbsp;&lt;br&gt;STREAMLIT&lt;/font&gt;&lt;/b&gt;" style="whiteSpace=wrap;html=1;aspect=fixed;fillColor=#e3c800;fontColor=#000000;strokeColor=#B09500;" parent="1" vertex="1">
          <mxGeometry x="10" y="-1230" width="140" height="140" as="geometry" />
        </mxCell>
        <mxCell id="9" value="&lt;font style=&quot;font-size: 14px;&quot;&gt;&lt;b&gt;USDA FOOD API&lt;/b&gt;&lt;/font&gt;" style="whiteSpace=wrap;html=1;aspect=fixed;fillColor=#1ba1e2;fontColor=#ffffff;strokeColor=#006EAF;" parent="1" vertex="1">
          <mxGeometry x="740" y="-990" width="120" height="120" as="geometry" />
        </mxCell>
        <mxCell id="10" value="&lt;font style=&quot;font-size: 14px;&quot;&gt;&lt;b&gt;MODEL (EFFICIENTNET) API&lt;/b&gt;&lt;/font&gt;" style="whiteSpace=wrap;html=1;aspect=fixed;fillColor=#a20025;fontColor=#ffffff;strokeColor=#6F0000;" parent="1" vertex="1">
          <mxGeometry x="740" y="-830" width="120" height="120" as="geometry" />
        </mxCell>
        <mxCell id="32" value="" style="endArrow=classic;startArrow=classic;html=1;rounded=0;exitX=1;exitY=0.5;exitDx=0;exitDy=0;entryX=-0.02;entryY=0.444;entryDx=0;entryDy=0;entryPerimeter=0;" parent="1" source="6" target="31" edge="1">
          <mxGeometry width="50" height="50" relative="1" as="geometry">
            <mxPoint x="450" y="-1010" as="sourcePoint" />
            <mxPoint x="500" y="-1060" as="targetPoint" />
          </mxGeometry>
        </mxCell>
        <mxCell id="37" value="&lt;font style=&quot;font-size: 14px;&quot;&gt;&lt;b style=&quot;&quot;&gt;MCP SERVER&lt;/b&gt;&lt;/font&gt;" style="rounded=1;whiteSpace=wrap;html=1;fillColor=#647687;fontColor=#ffffff;strokeColor=#314354;" parent="1" vertex="1">
          <mxGeometry x="505" y="-1230" width="120" height="60" as="geometry" />
        </mxCell>
        <mxCell id="38" value="" style="endArrow=classic;startArrow=classic;html=1;rounded=0;entryX=0.5;entryY=1;entryDx=0;entryDy=0;exitX=0.5;exitY=0;exitDx=0;exitDy=0;" parent="1" source="MsOpfCJwf6dWTmrJJ_BN-5" target="37" edge="1">
          <mxGeometry width="50" height="50" relative="1" as="geometry">
            <mxPoint x="450" y="-1040" as="sourcePoint" />
            <mxPoint x="500" y="-1090" as="targetPoint" />
          </mxGeometry>
        </mxCell>
        <mxCell id="39" value="&lt;b&gt;&lt;font style=&quot;font-size: 14px;&quot;&gt;MCP CLIENT&lt;/font&gt;&lt;/b&gt;" style="rounded=1;whiteSpace=wrap;html=1;fillColor=#bac8d3;strokeColor=#23445d;" parent="1" vertex="1">
          <mxGeometry x="280" y="-1230" width="100" height="60" as="geometry" />
        </mxCell>
        <mxCell id="40" value="" style="endArrow=classic;startArrow=classic;html=1;rounded=0;exitX=1;exitY=0.5;exitDx=0;exitDy=0;entryX=0;entryY=0.5;entryDx=0;entryDy=0;" parent="1" source="39" target="37" edge="1">
          <mxGeometry width="50" height="50" relative="1" as="geometry">
            <mxPoint x="450" y="-1040" as="sourcePoint" />
            <mxPoint x="500" y="-1090" as="targetPoint" />
          </mxGeometry>
        </mxCell>
        <mxCell id="h5wDumh7xr-tLEUtpDts-42" value="" style="endArrow=classic;startArrow=classic;html=1;rounded=0;exitX=1;exitY=0.25;exitDx=0;exitDy=0;entryX=0.033;entryY=0.392;entryDx=0;entryDy=0;entryPerimeter=0;" edge="1" parent="1" source="MsOpfCJwf6dWTmrJJ_BN-5" target="9">
          <mxGeometry width="50" height="50" relative="1" as="geometry">
            <mxPoint x="720" y="-830" as="sourcePoint" />
            <mxPoint x="730" y="-942" as="targetPoint" />
          </mxGeometry>
        </mxCell>
        <mxCell id="h5wDumh7xr-tLEUtpDts-43" value="" style="endArrow=classic;startArrow=classic;html=1;rounded=0;exitX=1;exitY=0.25;exitDx=0;exitDy=0;entryX=0.033;entryY=0.392;entryDx=0;entryDy=0;entryPerimeter=0;" edge="1" parent="1">
          <mxGeometry width="50" height="50" relative="1" as="geometry">
            <mxPoint x="650" y="-769.5" as="sourcePoint" />
            <mxPoint x="744" y="-770.5" as="targetPoint" />
          </mxGeometry>
        </mxCell>
      </root>
    </mxGraphModel>
  </diagram>
  <diagram id="zqcrIMS-tlgcJtv551Y8" name="Architecture without Agentic Layer">
    <mxGraphModel dx="1030" dy="1812" grid="1" gridSize="10" guides="1" tooltips="1" connect="1" arrows="1" fold="1" page="1" pageScale="1" pageWidth="850" pageHeight="1100" math="0" shadow="0">
      <root>
        <mxCell id="0" />
        <mxCell id="1" parent="0" />
        <mxCell id="iV9ySz6V01Df9bMtCQoa-2" value="&lt;font style=&quot;font-size: 14px;&quot;&gt;&lt;b style=&quot;&quot;&gt;BACKEND&lt;br&gt;&lt;br&gt;&lt;br&gt;&lt;br&gt;&lt;br&gt;CALORIE COACH&lt;br&gt;&lt;/b&gt;&lt;/font&gt;" style="rounded=1;whiteSpace=wrap;html=1;absoluteArcSize=1;arcSize=14;strokeWidth=2;fillColor=#60a917;fontColor=#ffffff;strokeColor=#2D7600;" parent="1" vertex="1">
          <mxGeometry x="480" y="-1030" width="170" height="350" as="geometry" />
        </mxCell>
        <mxCell id="iV9ySz6V01Df9bMtCQoa-3" value="&lt;b style=&quot;font-size: 14px;&quot;&gt;&lt;font color=&quot;#ffffff&quot;&gt;FRONT END&amp;nbsp;&lt;br&gt;STREAMLIT&lt;/font&gt;&lt;/b&gt;" style="whiteSpace=wrap;html=1;aspect=fixed;fillColor=#e3c800;fontColor=#000000;strokeColor=#B09500;" parent="1" vertex="1">
          <mxGeometry x="40" y="-925" width="140" height="140" as="geometry" />
        </mxCell>
        <mxCell id="iV9ySz6V01Df9bMtCQoa-4" value="&lt;font style=&quot;font-size: 14px;&quot;&gt;&lt;b&gt;USDA FOOD API&lt;/b&gt;&lt;/font&gt;" style="whiteSpace=wrap;html=1;aspect=fixed;fillColor=#1ba1e2;fontColor=#ffffff;strokeColor=#006EAF;" parent="1" vertex="1">
          <mxGeometry x="740" y="-990" width="120" height="120" as="geometry" />
        </mxCell>
        <mxCell id="iV9ySz6V01Df9bMtCQoa-5" value="&lt;font style=&quot;font-size: 14px;&quot;&gt;&lt;b&gt;MODEL (EFFICIENTNET) API&lt;/b&gt;&lt;/font&gt;" style="whiteSpace=wrap;html=1;aspect=fixed;fillColor=#a20025;fontColor=#ffffff;strokeColor=#6F0000;" parent="1" vertex="1">
          <mxGeometry x="740" y="-830" width="120" height="120" as="geometry" />
        </mxCell>
        <mxCell id="iV9ySz6V01Df9bMtCQoa-9" value="" style="endArrow=classic;startArrow=classic;html=1;rounded=0;exitX=1;exitY=0.5;exitDx=0;exitDy=0;entryX=0;entryY=0.5;entryDx=0;entryDy=0;" parent="1" source="iV9ySz6V01Df9bMtCQoa-3" target="iV9ySz6V01Df9bMtCQoa-2" edge="1">
          <mxGeometry width="50" height="50" relative="1" as="geometry">
            <mxPoint x="450" y="-1010" as="sourcePoint" />
            <mxPoint x="302.5999999999999" y="-1110.16" as="targetPoint" />
          </mxGeometry>
        </mxCell>
        <mxCell id="Hd5HRqlmG4XPSa01PqDr-1" value="" style="endArrow=classic;startArrow=classic;html=1;rounded=0;" edge="1" parent="1">
          <mxGeometry width="50" height="50" relative="1" as="geometry">
            <mxPoint x="650" y="-930" as="sourcePoint" />
            <mxPoint x="740" y="-930" as="targetPoint" />
          </mxGeometry>
        </mxCell>
        <mxCell id="Hd5HRqlmG4XPSa01PqDr-2" value="" style="endArrow=classic;startArrow=classic;html=1;rounded=0;" edge="1" parent="1">
          <mxGeometry width="50" height="50" relative="1" as="geometry">
            <mxPoint x="650" y="-770.5" as="sourcePoint" />
            <mxPoint x="740" y="-770.5" as="targetPoint" />
          </mxGeometry>
        </mxCell>
      </root>
    </mxGraphModel>
  </diagram>
</mxfile>
